<?xml version="1.0" encoding="UTF-8"?>
<svg xmlns="http://www.w3.org/2000/svg" xmlns:xlink="http://www.w3.org/1999/xlink" width="517" height="384" viewBox="0 0 517 384">
  <defs>
    <clipPath id="clip-Competitive-research">
      <rect width="517" height="384"></rect>
    </clipPath>
  </defs>
  <g id="Competitive-research" clip-path="url(#clip-Competitive-research)">
    <path id="Screen_shape" data-name="Screen shape" d="M492.14,0H24.69A24.63,24.63,0,0,0,0,24.57V358.11a24.64,24.64,0,0,0,24.69,24.58H492.14a24.64,24.64,0,0,0,24.69-24.58V24.58A24.63,24.63,0,0,0,492.15,0Z" transform="translate(0.46 0.74)" fill="#fff"></path>
    <rect id="Sub_Nav" data-name="Sub Nav" width="473.757" height="26.889" transform="translate(22 56.926)" fill="#3493ba"></rect>
    <path id="Moz_Bar" data-name="Moz Bar" d="M7.318,7.346H6.047L5.871,6.209a1.784,1.784,0,0,0-.636-.4,2.535,2.535,0,0,0-.905-.146,2.007,2.007,0,0,0-1.714.809,3.449,3.449,0,0,0-.6,2.109v.3A3.488,3.488,0,0,0,2.613,11a1.97,1.97,0,0,0,1.688.814,2.78,2.78,0,0,0,.923-.146,1.54,1.54,0,0,0,.647-.4l.176-1.137H7.318v1.688A3.669,3.669,0,0,1,6,12.769a4.371,4.371,0,0,1-1.79.354A3.652,3.652,0,0,1,1.4,11.934,4.329,4.329,0,0,1,.3,8.881V8.594a4.356,4.356,0,0,1,1.09-3.053,3.639,3.639,0,0,1,2.818-1.2A4.29,4.29,0,0,1,6,4.706a3.831,3.831,0,0,1,1.318.952Zm.826,2.426a3.394,3.394,0,0,1,.794-2.323,2.766,2.766,0,0,1,2.194-.905,2.778,2.778,0,0,1,2.2.9,3.392,3.392,0,0,1,.794,2.326v.123a3.389,3.389,0,0,1-.794,2.329,2.768,2.768,0,0,1-2.188.9,2.789,2.789,0,0,1-2.206-.9,3.389,3.389,0,0,1-.794-2.329Zm1.711.123a2.758,2.758,0,0,0,.3,1.392,1.052,1.052,0,0,0,.984.524,1.042,1.042,0,0,0,.97-.527,2.74,2.74,0,0,0,.308-1.389V9.771a2.712,2.712,0,0,0-.311-1.377,1.051,1.051,0,0,0-.979-.533,1.038,1.038,0,0,0-.973.533,2.754,2.754,0,0,0-.3,1.377Zm4.816-2.2V6.66h2.5l.07.838a2.13,2.13,0,0,1,.765-.706,2.2,2.2,0,0,1,1.063-.249,1.937,1.937,0,0,1,1.043.27,1.663,1.663,0,0,1,.656.814,2.2,2.2,0,0,1,.762-.8,2.067,2.067,0,0,1,1.1-.287,1.827,1.827,0,0,1,1.479.647,3.022,3.022,0,0,1,.542,1.972V11.8l.826.176V13H22.207V11.975l.738-.176V9.156a1.6,1.6,0,0,0-.234-1,.856.856,0,0,0-.7-.281,1.194,1.194,0,0,0-.63.161,1.174,1.174,0,0,0-.425.448q0,.111.006.19t.006.161V11.8l.691.176V13H18.574V11.975l.691-.176V9.156a1.608,1.608,0,0,0-.234-.993.85.85,0,0,0-.7-.29A1.327,1.327,0,0,0,17.722,8a1.163,1.163,0,0,0-.431.372V11.8l.738.176V13H14.76V11.975l.826-.176V7.867Zm11.232,0V6.66h2.484l.082.738a2.032,2.032,0,0,1,.674-.633,1.821,1.821,0,0,1,.914-.223,2.11,2.11,0,0,1,1.828.92,4.106,4.106,0,0,1,.65,2.42v.123a3.641,3.641,0,0,1-.65,2.262,2.152,2.152,0,0,1-1.816.855,2.03,2.03,0,0,1-.885-.185,1.817,1.817,0,0,1-.662-.542V14.23l.826.176v1.031H25.992V14.406l.826-.176V7.867Zm4.922,2.191a3.067,3.067,0,0,0-.3-1.453.975.975,0,0,0-.914-.557,1.292,1.292,0,0,0-.659.158,1.129,1.129,0,0,0-.431.451V11.26a1.049,1.049,0,0,0,.431.41,1.451,1.451,0,0,0,.671.141.984.984,0,0,0,.911-.486,2.567,2.567,0,0,0,.29-1.318Zm5.508,3.24a2.854,2.854,0,0,1-2.191-.879,3.143,3.143,0,0,1-.82-2.232V9.777A3.468,3.468,0,0,1,34.1,7.451a2.895,2.895,0,0,1,4.075-.135,2.976,2.976,0,0,1,.709,2.092v.932H35.1l-.012.035a1.655,1.655,0,0,0,.419,1.031,1.306,1.306,0,0,0,1.011.4,3.292,3.292,0,0,0,.943-.114,4.336,4.336,0,0,0,.82-.36l.463,1.055a3.368,3.368,0,0,1-1.017.521A4.328,4.328,0,0,1,36.334,13.123Zm-.152-5.262a.891.891,0,0,0-.75.363,1.891,1.891,0,0,0-.34.955l.018.029h2.1V9.057a1.372,1.372,0,0,0-.255-.87A.919.919,0,0,0,36.182,7.861Zm6.035-2.754V6.66H43.33v1.2H42.217V11.09a.746.746,0,0,0,.152.527.543.543,0,0,0,.41.158,2.824,2.824,0,0,0,.308-.015q.132-.015.3-.05l.146,1.236a4.107,4.107,0,0,1-.568.132,3.955,3.955,0,0,1-.609.044,1.824,1.824,0,0,1-1.362-.486,2.132,2.132,0,0,1-.478-1.541V7.861H39.58V6.66h.932V5.107Zm1.9,6.867.826-.176V7.867l-.914-.176V6.66h2.625V11.8l.82.176V13H44.115Zm2.537-6.832H44.941V3.859h1.711Zm3.908-.035V6.66h1.113v1.2H50.561V11.09a.746.746,0,0,0,.152.527.543.543,0,0,0,.41.158,2.824,2.824,0,0,0,.308-.015q.132-.015.3-.05l.146,1.236a4.107,4.107,0,0,1-.568.132,3.955,3.955,0,0,1-.609.044,1.824,1.824,0,0,1-1.362-.486,2.132,2.132,0,0,1-.478-1.541V7.861h-.932V6.66h.932V5.107Zm1.9,6.867.826-.176V7.867l-.914-.176V6.66H55V11.8l.82.176V13H52.459ZM55,5.143H53.285V3.859H55Zm4.072,2.549-.6.111.838,2.836.111.6h.035l.123-.6.826-2.83-.609-.117V6.66h2.877V7.691l-.551.088L60.252,13H58.617L56.742,7.779l-.551-.088V6.66h2.877Zm7.107,5.432a2.854,2.854,0,0,1-2.191-.879,3.143,3.143,0,0,1-.82-2.232V9.777a3.468,3.468,0,0,1,.776-2.326,2.895,2.895,0,0,1,4.075-.135,2.976,2.976,0,0,1,.709,2.092v.932H64.939l-.012.035a1.655,1.655,0,0,0,.419,1.031,1.306,1.306,0,0,0,1.011.4A3.292,3.292,0,0,0,67.3,11.7a4.336,4.336,0,0,0,.82-.36l.463,1.055a3.368,3.368,0,0,1-1.017.521A4.328,4.328,0,0,1,66.176,13.123Zm-.152-5.262a.891.891,0,0,0-.75.363,1.891,1.891,0,0,0-.34.955l.018.029h2.1V9.057a1.372,1.372,0,0,0-.255-.87A.919.919,0,0,0,66.023,7.861ZM76.266,4.469a3.539,3.539,0,0,1,2.279.665,2.228,2.228,0,0,1,.826,1.837,1.85,1.85,0,0,1-.346,1.119,2.417,2.417,0,0,1-1.014.768A1.841,1.841,0,0,1,79.1,9.6a2.344,2.344,0,0,1,.331,1.286v.434a.74.74,0,0,0,.111.437.5.5,0,0,0,.369.185l.211.029V13h-.885a1.384,1.384,0,0,1-1.178-.451,1.886,1.886,0,0,1-.34-1.166V10.9a1.373,1.373,0,0,0-.331-.976,1.27,1.27,0,0,0-.935-.372h-1.4V11.8l.914.176V13H72.434V11.975l.908-.176V5.676L72.434,5.5V4.469h3.832ZM75.053,8.23h1.184a1.618,1.618,0,0,0,1.072-.3,1.091,1.091,0,0,0,.357-.879,1.217,1.217,0,0,0-.354-.917,1.448,1.448,0,0,0-1.046-.343H75.053Zm8.707,4.893a2.854,2.854,0,0,1-2.191-.879,3.143,3.143,0,0,1-.82-2.232V9.777a3.468,3.468,0,0,1,.776-2.326A2.895,2.895,0,0,1,85.6,7.316a2.976,2.976,0,0,1,.709,2.092v.932H82.523l-.012.035a1.655,1.655,0,0,0,.419,1.031,1.306,1.306,0,0,0,1.011.4,3.292,3.292,0,0,0,.943-.114,4.336,4.336,0,0,0,.82-.36l.463,1.055a3.368,3.368,0,0,1-1.017.521A4.328,4.328,0,0,1,83.76,13.123Zm-.152-5.262a.891.891,0,0,0-.75.363,1.891,1.891,0,0,0-.34.955l.018.029h2.1V9.057a1.372,1.372,0,0,0-.255-.87A.919.919,0,0,0,83.607,7.861Zm8.684.979H91.143l-.182-.791a1.5,1.5,0,0,0-.442-.234,1.765,1.765,0,0,0-.589-.094,1.147,1.147,0,0,0-.715.2.615.615,0,0,0-.264.507.577.577,0,0,0,.252.478,2.7,2.7,0,0,0,1.008.337,4.1,4.1,0,0,1,1.746.688,1.513,1.513,0,0,1,.568,1.251,1.664,1.664,0,0,1-.735,1.4,3.187,3.187,0,0,1-1.937.542,4.054,4.054,0,0,1-1.345-.214,3.435,3.435,0,0,1-1.087-.612L87.4,10.873h1.2l.234.826a.98.98,0,0,0,.416.19,2.417,2.417,0,0,0,.551.062,1.4,1.4,0,0,0,.794-.187.588.588,0,0,0,.272-.51.6.6,0,0,0-.275-.486,2.811,2.811,0,0,0-1.014-.363,4.064,4.064,0,0,1-1.69-.677,1.469,1.469,0,0,1-.571-1.222,1.772,1.772,0,0,1,.656-1.374,2.742,2.742,0,0,1,1.869-.577,4.805,4.805,0,0,1,1.4.2,2.953,2.953,0,0,1,1.034.51Zm4.037,4.283a2.854,2.854,0,0,1-2.191-.879,3.143,3.143,0,0,1-.82-2.232V9.777a3.468,3.468,0,0,1,.776-2.326,2.895,2.895,0,0,1,4.075-.135,2.976,2.976,0,0,1,.709,2.092v.932H95.092l-.012.035a1.655,1.655,0,0,0,.419,1.031,1.306,1.306,0,0,0,1.011.4,3.292,3.292,0,0,0,.943-.114,4.336,4.336,0,0,0,.82-.36l.463,1.055a3.368,3.368,0,0,1-1.017.521A4.328,4.328,0,0,1,96.328,13.123Zm-.152-5.262a.891.891,0,0,0-.75.363,1.891,1.891,0,0,0-.34.955l.018.029h2.1V9.057a1.372,1.372,0,0,0-.255-.87A.919.919,0,0,0,96.176,7.861ZM103.723,13a3.094,3.094,0,0,1-.123-.325,2.565,2.565,0,0,1-.082-.337,2.354,2.354,0,0,1-.741.568,2.217,2.217,0,0,1-1,.217,2.093,2.093,0,0,1-1.479-.507,1.788,1.788,0,0,1-.548-1.38,1.569,1.569,0,0,1,.715-1.377,3.734,3.734,0,0,1,2.1-.486h.873V8.752a.934.934,0,0,0-.264-.709,1.087,1.087,0,0,0-.779-.252,1.845,1.845,0,0,0-.521.067,1.364,1.364,0,0,0-.369.161l-.111.68H100.1l.006-1.406a4.8,4.8,0,0,1,1.075-.533,3.9,3.9,0,0,1,1.321-.217,3.008,3.008,0,0,1,1.913.577,1.967,1.967,0,0,1,.735,1.644v2.619q0,.146,0,.275a1.959,1.959,0,0,0,.021.246l.521.07V13Zm-1.482-1.143a1.483,1.483,0,0,0,.7-.167,1.358,1.358,0,0,0,.492-.419V10.3h-.873a1.192,1.192,0,0,0-.826.255.8.8,0,0,0-.281.612.634.634,0,0,0,.208.5A.848.848,0,0,0,102.24,11.857Zm4.166.117.82-.176V7.867l-.908-.176V6.66h2.5l.076.926a2,2,0,0,1,.574-.768,1.283,1.283,0,0,1,.814-.275,2.093,2.093,0,0,1,.284.021,1.741,1.741,0,0,1,.249.05l-.182,1.559-.7-.018a1.2,1.2,0,0,0-.621.146.947.947,0,0,0-.375.416V11.8l.82.176V13h-3.352Zm7.787-.164a1.008,1.008,0,0,0,.732-.267.945.945,0,0,0,.275-.712h1.547l.018.035a1.978,1.978,0,0,1-.721,1.608,3.048,3.048,0,0,1-4.037-.249,3.416,3.416,0,0,1-.768-2.3V9.748a3.373,3.373,0,0,1,.788-2.3,2.824,2.824,0,0,1,2.247-.9,3.9,3.9,0,0,1,1.377.229,2.721,2.721,0,0,1,1.014.645l.023,1.693H115.3l-.281-.99a1.081,1.081,0,0,0-.316-.185,1.169,1.169,0,0,0-.428-.073,1.08,1.08,0,0,0-1.025.527,2.737,2.737,0,0,0-.3,1.359v.176a2.92,2.92,0,0,0,.275,1.368A1,1,0,0,0,114.193,11.811Zm3.252.164.826-.176V5.066l-.914-.176V3.859h2.619V7.469a2.157,2.157,0,0,1,.732-.683,2.12,2.12,0,0,1,2.522.416,3.076,3.076,0,0,1,.565,2.036V11.8l.82.176V13h-3.27V11.975l.738-.176V9.227a1.63,1.63,0,0,0-.261-1.046.961.961,0,0,0-.776-.308,1.419,1.419,0,0,0-.624.129,1.246,1.246,0,0,0-.448.363V11.8l.738.176V13h-3.27Z" transform="translate(42.487 61.048)" fill="#fff"></path>
    <circle id="Oval" cx="5.122" cy="5.122" r="5.122" transform="translate(456.063 65.889)" fill="#66aecb" opacity="0"></circle>
    <circle id="Oval_Copy_2" data-name="Oval Copy 2" cx="5.122" cy="5.122" r="5.122" transform="translate(433.063 65.889)" fill="#66aecb"></circle>
    <circle id="Oval_Copy_2-2" data-name="Oval Copy 2" cx="7.622" cy="7.622" r="7.622" transform="translate(42.487 105.989)" fill="#66aecb"></circle>
    <circle id="Oval_Copy_2-3" data-name="Oval Copy 2" cx="7.622" cy="7.622" r="7.622" transform="translate(42.487 170.757)" fill="#d8d8d8"></circle>
    <circle id="Oval_Copy_2-4" data-name="Oval Copy 2" cx="7.622" cy="7.622" r="7.622" transform="translate(42.487 269.062)" fill="#d8d8d8"></circle>
    <g id="Group_3" data-name="Group 3" transform="translate(42.487 39)">
      <path id="Fill_1" data-name="Fill 1" d="M20.465,12a6.588,6.588,0,0,1-4.143-1.448,5.927,5.927,0,0,1-2.135-3.591v3.782H11.846a.457.457,0,0,1-.412-.455l0-4.368L7.1,11.142,2.756,5.92v4.368a.461.461,0,0,1-.414.455H0V1.434H2.005a1.623,1.623,0,0,1,1.208.589L7.094,6.684l3.881-4.662a1.625,1.625,0,0,1,1.207-.589h2.005V5.039a5.928,5.928,0,0,1,2.135-3.591A6.588,6.588,0,0,1,20.465,0a6.422,6.422,0,0,1,5.6,3.158V1.874a.446.446,0,0,1,.413-.44H38L32.4,7.8H38v2.5a.456.456,0,0,1-.415.442h-11.5L31.66,4.373H26.588A5.677,5.677,0,0,1,26.826,6,6.2,6.2,0,0,1,20.465,12ZM20.3,2.727a3.067,3.067,0,0,0-3.122,3,3.126,3.126,0,0,0,6.246,0A3.068,3.068,0,0,0,20.3,2.727Z" transform="translate(0.513)" fill="#4dbdeb"></path>
    </g>
    <path id="Screen_frame_rectangle" data-name="Screen frame rectangle" d="M-1-1H474.47V330.68H-1ZM472.47,1H1V328.68H472.47Z" transform="translate(22.14 25.92)" fill="#dfdfdf"></path>
    <path id="Rectangle_Copy_6" data-name="Rectangle Copy 6" d="M2,2V24.342H253.556V2H2M0,0H255.556V26.342H0Z" transform="translate(72.358 189)" fill="#f0f0f0"></path>
    <path id="Rectangle_Copy_6-2" data-name="Rectangle Copy 6" d="M2,2V24.342H253.556V2H2M0,0H255.556V26.342H0Z" transform="translate(72.358 287.844)" fill="#f0f0f0"></path>
    <path id="Rectangle_Copy_6-3" data-name="Rectangle Copy 6" d="M2,2V24.342H253.556V2H2M0,0H255.556V26.342H0Z" transform="translate(72.358 226.007)" fill="#f0f0f0"></path>
    <path id="Rectangle_Copy_6-4" data-name="Rectangle Copy 6" d="M2,2V24.342H132.5V2H2M0,0H134.5V26.342H0Z" transform="translate(342.881 189)" fill="#f0f0f0"></path>
    <path id="Rectangle_Copy_6-5" data-name="Rectangle Copy 6" d="M2,2V24.342H132.5V2H2M0,0H134.5V26.342H0Z" transform="translate(342.881 287.844)" fill="#f0f0f0"></path>
    <path id="Rectangle_Copy_6-6" data-name="Rectangle Copy 6" d="M2,2V24.342H132.5V2H2M0,0H134.5V26.342H0Z" transform="translate(342.881 226.007)" fill="#f0f0f0"></path>
    <path id="Path_Copy_24" data-name="Path Copy 24" d="M0,3A1.5,1.5,0,0,1-1.5,1.5,1.5,1.5,0,0,1,0,0L171.5-.33h0a1.5,1.5,0,0,1,0,3L0,3Z" transform="translate(72.858 176.67)" fill="#c9c9cc"></path>
    <path id="Path_Copy_24-2" data-name="Path Copy 24" d="M0,3A1.5,1.5,0,0,1-1.5,1.5,1.5,1.5,0,0,1,0,0L171.5-.33h0a1.5,1.5,0,0,1,0,3L0,3Z" transform="translate(72.858 275.514)" fill="#c9c9cc"></path>
    <path id="Path_Copy_24-3" data-name="Path Copy 24" d="M0,3A1.5,1.5,0,0,1-1.5,1.5,1.5,1.5,0,0,1,0,0L171.5-.33h0a1.5,1.5,0,0,1,0,3L0,3Z" transform="translate(72.858 112.441)" fill="#c9c9cc"></path>
    <path id="Path_Copy_32" data-name="Path Copy 32" d="M0,3A1.5,1.5,0,0,1-1.5,1.508,1.5,1.5,0,0,1-.008,0L65.025-.33a1.5,1.5,0,1,1,.015,3L.008,3Z" transform="translate(345.098 176.835)" fill="#c9c9cc"></path>
    <path id="Path_Copy_32-2" data-name="Path Copy 32" d="M0,3A1.5,1.5,0,0,1-1.5,1.508,1.5,1.5,0,0,1-.008,0L65.025-.33a1.5,1.5,0,1,1,.015,3L.008,3Z" transform="translate(345.098 275.679)" fill="#c9c9cc"></path>
    <path id="Path_Copy_32-3" data-name="Path Copy 32" d="M0,3A1.5,1.5,0,0,1-1.5,1.508,1.5,1.5,0,0,1-.008,0L65.025-.33a1.5,1.5,0,1,1,.015,3L.008,3Z" transform="translate(345.098 112.606)" fill="#c9c9cc"></path>
    <rect id="_" data-name="速" width="255.056" height="28.734" transform="translate(72.858 124.771)" fill="#d8d8d8"></rect>
    <path id="_-_Outline" data-name="速 - Outline" d="M2,2V26.734H253.056V2H2M0,0H255.056V28.734H0Z" transform="translate(72.858 124.771)" fill="#e7ebec"></path>
    <rect id="_2" data-name="速" width="134.5" height="28.734" transform="translate(342.881 124.771)" fill="#d8d8d8"></rect>
    <path id="_-_Outline-2" data-name="速 - Outline" d="M2,2V26.734H132.5V2H2M0,0H134.5V28.734H0Z" transform="translate(342.881 124.771)" fill="#e7ebec"></path>
    <path id="Path_Copy_31" data-name="Path Copy 31" d="M132.95,2.67h-.008L-.008,2A1.5,1.5,0,0,1-1.5.492,1.5,1.5,0,0,1,.008-1l132.95.67a1.5,1.5,0,0,1-.007,3Z" transform="translate(63.55 479.33)" fill="#c9c9cc"></path>
    <path id="Path_10" data-name="Path 10" d="M0,0V6.514L5.211,3.257Z" transform="translate(467.442 237.573) rotate(90)" fill="#c9c9cc"></path>
    <path id="Path_10-2" data-name="Path 10" d="M0,0V6.514L5.211,3.257Z" transform="translate(467.442 202.144) rotate(90)" fill="#c9c9cc"></path>
    <path id="Path_10-3" data-name="Path 10" d="M0,0V6.514L5.211,3.257Z" transform="translate(467.442 137.729) rotate(90)" fill="#fff"></path>
    <path id="Path_10-4" data-name="Path 10" d="M0,0V6.514L5.211,3.257Z" transform="translate(467.442 299.015) rotate(90)" fill="#c9c9cc"></path>
    <path id="Path_Copy_24-4" data-name="Path Copy 24" d="M0,3A1.5,1.5,0,0,1-1.5,1.5,1.5,1.5,0,0,1,0,0L106.976-.33a1.5,1.5,0,0,1,.009,3L0,3Z" transform="translate(95.858 137.968)" fill="#4dbdeb"></path>
    <path id="Path_Copy_24-5" data-name="Path Copy 24" d="M0,3A1.5,1.5,0,0,1-1.5,1.507,1.5,1.5,0,0,1-.007,0L67.664-.33a1.5,1.5,0,1,1,.015,3L.007,3Z" transform="translate(356.64 137.968)" fill="#4dbdeb"></path>
    <rect id="Rectangle_Copy_11" data-name="Rectangle Copy 11" width="69" height="20" transform="translate(72.358 325.016)" fill="#4dbdeb"></rect>
    <path id="Path_Copy_29" data-name="Path Copy 29" d="M0,3A1.5,1.5,0,0,1-1.5,1.514,1.5,1.5,0,0,1-.014,0l34.95-.33a1.5,1.5,0,1,1,.028,3L.014,3Z" transform="translate(87.908 333.346)" fill="#fff"></path>
    <path id="Path_3" data-name="Path 3" d="M-1741.179-2320.456h46.6L-1603-2248.6v37.745Z" transform="translate(2097.5 2347)" fill="#ffd262"></path>
    <path id="Moz_Bar-2" data-name="Moz Bar" d="M20.01,8.033V29h-2a1.761,1.761,0,0,1-.776-.152,1.814,1.814,0,0,1-.6-.515L5.684,14.355q.087.957.087,1.769V29H2.335V8.033H4.379a3.646,3.646,0,0,1,.428.022,1.028,1.028,0,0,1,.319.087,1.046,1.046,0,0,1,.268.189,3.022,3.022,0,0,1,.29.326L16.675,22.693q-.043-.508-.073-1t-.029-.913V8.033ZM33.249,19.851a4.31,4.31,0,0,0-.2-1.312,3.119,3.119,0,0,0-.587-1.08,2.731,2.731,0,0,0-.993-.732,3.409,3.409,0,0,0-1.4-.268,3.317,3.317,0,0,0-2.443.884,4.338,4.338,0,0,0-1.138,2.509Zm-6.83,2.16a7.048,7.048,0,0,0,.406,1.979,4.048,4.048,0,0,0,.841,1.378,3.294,3.294,0,0,0,1.24.812,4.5,4.5,0,0,0,1.588.268,4.922,4.922,0,0,0,1.5-.2,7.037,7.037,0,0,0,1.1-.45q.471-.247.826-.449a1.387,1.387,0,0,1,.689-.2.741.741,0,0,1,.667.333l1.029,1.305a5.969,5.969,0,0,1-1.334,1.167,7.481,7.481,0,0,1-1.544.754,8.44,8.44,0,0,1-1.638.4,11.732,11.732,0,0,1-1.617.116,7.947,7.947,0,0,1-2.885-.515,6.459,6.459,0,0,1-2.32-1.522,7.143,7.143,0,0,1-1.552-2.494,9.651,9.651,0,0,1-.565-3.444,8.235,8.235,0,0,1,.493-2.864,6.886,6.886,0,0,1,1.414-2.334,6.656,6.656,0,0,1,2.247-1.573A7.4,7.4,0,0,1,30,13.891a7.283,7.283,0,0,1,2.6.45,5.655,5.655,0,0,1,2.045,1.312,6.079,6.079,0,0,1,1.341,2.117,7.887,7.887,0,0,1,.486,2.864,2.325,2.325,0,0,1-.174,1.095.721.721,0,0,1-.667.283Zm33.77-7.888L55.463,29H52.591q-.493,0-.681-.638l-2.668-8.6q-.13-.435-.239-.863t-.181-.863q-.087.435-.2.877t-.239.877l-2.711,8.569a.751.751,0,0,1-.769.638H42.152L37.439,14.123H40.3a1.153,1.153,0,0,1,.667.189.878.878,0,0,1,.362.479l2.132,7.946q.16.652.283,1.276t.21,1.247q.16-.623.341-1.247t.384-1.276l2.465-7.975a.91.91,0,0,1,.341-.478,1,1,0,0,1,.616-.189h1.581a1.094,1.094,0,0,1,.645.189.887.887,0,0,1,.355.478l2.392,7.975q.189.652.355,1.283t.326,1.254a23.853,23.853,0,0,1,.536-2.538l2.189-7.946a.98.98,0,0,1,.362-.479,1.036,1.036,0,0,1,.624-.189Z" transform="matrix(0.788, 0.616, -0.616, 0.788, 424.107, 36.369)" fill="#565e66"></path>
  </g>
</svg>
